<?xml version="1.0" standalone="no"?>
<!DOCTYPE svg PUBLIC "-//W3C//DTD SVG 1.1//EN" "http://www.w3.org/Graphics/SVG/1.1/DTD/svg11.dtd" >
<svg>
<metadata>
Created by FontForge 20090914 at Wed Dec 19 12:04:39 2018
 By www-data
&#194;&#169; 2006 Gabriele Magurno - www.magurno.com. All Rights Reserved.
</metadata>
<defs>
<font id="Steiner" horiz-adv-x="1472" >
  <font-face 
    font-family="Steiner"
    font-weight="300"
    font-stretch="semi-expanded"
    units-per-em="2048"
    panose-1="2 0 3 0 0 0 0 6 0 0"
    ascent="1638"
    descent="-410"
    x-height="1256"
    cap-height="1720"
    bbox="59.998 -711.001 1648 1724"
    underline-thickness="150"
    underline-position="-142"
    unicode-range="U+0020-U+20AC"
  />
<missing-glyph horiz-adv-x="1144" 
d="M60 0v1280h1024v-1280h-1024zM92 32h960v1216h-960v-1216z" />
    <glyph glyph-name=".notdef" horiz-adv-x="1144" 
d="M60 0v1280h1024v-1280h-1024zM92 32h960v1216h-960v-1216z" />
    <glyph glyph-name="space" unicode=" " horiz-adv-x="601" 
 />
    <glyph glyph-name="space" unicode="&#xa0;" horiz-adv-x="601" 
 />
    <glyph glyph-name="exclam" unicode="!" horiz-adv-x="210" 
d="M60 1720h90v-1400h-90v1400zM61 207h89v-207h-89v207z" />
    <glyph glyph-name="ampersand" unicode="&#x26;" horiz-adv-x="1708" 
d="M592 1720c87.333 0 168.666 -36.001 243.999 -108.001c48 -72 72 -134.667 72 -188v-44c0 -61.333 -28.667 -131 -86 -209l-66 69c40 33.333 60 88 60 164v8c0 78 -36 139.333 -108 184c-42.667 21.333 -84 32 -124 32h-16c-32.667 0 -74 -13.333 -124 -40
c-61.333 -48.667 -92 -112.667 -92 -192c0 -83.333 46.667 -162 140 -236c364 -368 549.333 -552 556 -552v200h88v-292l512 -516h-120l-404 396c-33.333 -117.333 -82.666 -204 -147.999 -260c-110 -90.667 -219.333 -136 -328 -136h-36
c-226.667 0 -390.667 90.667 -492 272c-24 44 -44 118.667 -60 224v12c0 68.667 12 143.334 36 224.001c55.333 126.667 139.333 217.334 252 272.001c62.667 26.667 102.667 40 120 40l4 4v4c-120 111.333 -180 180.666 -180 207.999c-21.333 56 -32 97.333 -32 124
c0 96 28 174.667 84 236c66 66.667 148.667 100 248 100zM152 559.999c0 -141.333 34.667 -248.001 104 -320.001c19.333 -30 64.666 -66 135.999 -108c64.667 -26.667 134 -40 208 -40h52c72 0 157.333 34.667 256 104c62.667 64.667 101.334 127.334 116.001 188.001
l20 96l-492 488c-68 0 -152 -33.333 -252 -100c-80 -88 -124 -161.333 -132 -220z" />
    <glyph glyph-name="quotesingle" unicode="'" horiz-adv-x="228" 
d="M188 1536c0 -35.333 -25.333 -98 -76 -188l-32 22l46 138h-26v212h88v-184z" />
    <glyph glyph-name="asterisk" unicode="*" horiz-adv-x="509" 
d="M289 1720v-115l100 97l45 -45l-97 -100h112v-66h-112l97 -100l-45 -45l-100 96v-111h-66v111l-100 -96l-45 45l97 100h-115v66h115l-97 100l45 45l100 -97v115h66z" />
    <glyph glyph-name="plus" unicode="+" horiz-adv-x="794" 
d="M456 728h278v-128h-278v-273h-128v273h-268v128h268v273h128v-273z" />
    <glyph glyph-name="comma" unicode="," horiz-adv-x="228" 
d="M168 16c0 -35.333 -25.333 -98 -76 -188l-32 22l46 138h-26v212h88v-184z" />
    <glyph glyph-name="hyphen" unicode="-" horiz-adv-x="794" 
d="M734 603h-674v128h674v-128z" />
    <glyph glyph-name="hyphen" unicode="&#xad;" horiz-adv-x="794" 
d="M734 603h-674v128h674v-128z" />
    <glyph glyph-name="period" unicode="." horiz-adv-x="208" 
d="M60 208h88v-208h-88v208z" />
    <glyph glyph-name="slash" unicode="/" horiz-adv-x="1476" 
d="M1416 1720v-4l-1252 -1716h-104l1252 1720h104z" />
    <glyph glyph-name="zero" unicode="0" horiz-adv-x="1376" 
d="M672 1716l39.998 -0.000976562c85.333 0 184 -25.333 296 -76c205.333 -121.333 308 -297.333 308 -528v-508c0 -160 -50.667 -296 -152 -408c-25.333 -30.667 -62.666 -62.667 -111.999 -96c-103.333 -58.667 -180.666 -88 -231.999 -88c0 -6 -26.667 -10 -80 -12h-88
c-140.667 0 -279.334 57.333 -416.001 172c-93.333 110.667 -146.666 217.334 -159.999 320.001c-10.667 47.333 -16 96.666 -16 147.999v424c0 278.667 117.333 477.334 352 596.001c108 37.333 194.667 56 260 56zM155.998 991.999l0.000976562 -272.001
c0 -182.667 25.333 -308 76 -376c42.667 -92.667 133.334 -166 272.001 -220c73.333 -21.333 130.666 -32 171.999 -32h24c119.333 0 236.666 42.667 351.999 128c114.667 103.333 172 243.333 172 420v432c0 220.667 -85.333 379.334 -256 476.001
c-88.667 48 -176.667 72 -264 72h-28c-125.333 0 -249.333 -49.333 -372 -148c-48.667 -59.333 -86 -119.333 -112 -180c-24 -63.333 -36 -163.333 -36 -300z" />
    <glyph glyph-name="one" unicode="1" horiz-adv-x="476" 
d="M416 0h-88v1628h-268v92h356v-1720z" />
    <glyph glyph-name="two" unicode="2" horiz-adv-x="1284" 
d="M636 1720c106 0 195.334 -20.002 268.001 -60.002c29.333 -11.333 65.333 -32.666 108 -63.999c68 -60 116 -117.333 144 -172c45.333 -92.667 68 -182 68 -268v-76c0 -76 -32 -170.667 -96 -284c-48 -51.333 -204 -184.666 -468 -399.999
c-202.667 -173.333 -322.667 -273.333 -360 -300v-4h916v-92h-1152l964 808c40 56 69.333 114.667 88 176l20 116c0 199.333 -64 343.333 -192 432c-28.667 27.333 -87.334 54 -176.001 80l-116 16h-24c-85.333 0 -176 -26.667 -272 -80
c-91.333 -61.333 -155.333 -146.666 -192 -255.999l-20 -156h-84v20c0 119.333 44 236.666 132 351.999c65.333 74.667 118.666 118.667 159.999 132c86.667 53.333 181.334 80 284.001 80z" />
    <glyph glyph-name="three" unicode="3" horiz-adv-x="1292" 
d="M1232 1300l-0.000976562 -31.998c0 -186.667 -74.667 -322.667 -224 -408v-8c74.667 -30 138.667 -100.667 192 -212c21.333 -64 32 -128 32 -192v-32c-18.667 -114.667 -34.667 -172 -48 -172c-37.333 -80.667 -92 -143.334 -164 -188.001
c-75.333 -34.667 -139.333 -52 -192 -52l-172 -4h-596v88h744c88.667 0 171.334 36 248.001 108c58.667 77.333 88 161.333 88 252h4c-16 114 -37.333 183.333 -64 208c-30 61.333 -94 109.333 -192 144c-27.333 8 -78 12 -152 12h-596v92h672
c112.667 0 207.334 58.667 284.001 176c16.667 22 32.667 82 48 180c-8 85.333 -22.667 146.666 -44 183.999c-36.667 76.667 -102 132.667 -196 168c-40.667 10.667 -107.334 16 -200.001 16h-644v88h736c116 0 221.333 -44 316 -132l64 -92c37.333 -80 56 -144 56 -192z
" />
    <glyph glyph-name="four" unicode="4" horiz-adv-x="1292" 
d="M964 1720h92v-1224h176v-88h-176v-408h-92v408h-904v4zM228 500v-4h736v1072z" />
    <glyph glyph-name="five" unicode="5" horiz-adv-x="1276" 
d="M312 1716l815.998 -0.000976562v-88h-736l-124 -600h4c77.333 59.333 168 98 272 116c0 6.66699 42.667 12 128 16c89.333 -4.66699 176 -27.334 260 -68.001c57.333 -31.333 113.333 -76.666 168 -135.999c77.333 -118 116 -224.667 116 -320v-140
c-21.333 -122 -60 -215.333 -116 -280c-64 -71.333 -124 -120.666 -180 -147.999c-100 -45.333 -186.667 -68 -260 -68h-80c-60 -0 -140 21.333 -240 64c-122 72.667 -203.333 166 -244 280c-24 66.667 -36 113.334 -36 140.001v8h92v-4c0 -75.333 42.667 -163.333 128 -264
c98 -82.667 184.667 -124 260 -124c16.667 -8 43.334 -12 80.001 -12h36c72 0 153.333 22.667 244 68c98.667 56 169.334 144 212.001 264c13.333 63.333 20 110 20 140v4c0 243.333 -113.333 404.666 -340 483.999c-56.667 16 -106 24 -148 24
c-170.667 0 -308 -65.333 -412 -196v-4c-58.667 18.667 -88 30.667 -88 36z" />
    <glyph glyph-name="six" unicode="6" horiz-adv-x="1288" 
d="M688 1720l104 0.000976562l-396 -604v-4c74.667 37.333 164 56 268 56c78.667 0 170.667 -26.667 276 -80c97.333 -62.667 165.333 -130.667 204 -204c56 -80 84 -188 84 -324c0 -144 -64 -282.667 -192 -416c-123.333 -93.333 -231.333 -140 -324 -140l-52 -4h-64
c-65.333 0 -149.333 24 -252 72c-189.333 124.667 -284 298 -284 520c12 147.333 53.333 270 124 368c260.667 399.333 428.667 652.666 504 759.999zM152 604.001l0.000976562 -44c0 -134.667 56 -254.667 168 -360c101.333 -72 205.333 -108 312 -108h16
c136 0 254.667 45.333 356 136c93.333 100.667 140 220.667 140 360c0 106.667 -36 210.667 -108 312c-102.667 114.667 -229.334 172 -380.001 172h-24c-141.333 0 -264 -54.667 -368 -164c-74.667 -98 -112 -199.333 -112 -304z" />
    <glyph glyph-name="seven" unicode="7" horiz-adv-x="1296" 
d="M504 0h-104l688 1628h-1028v92h1176l-732 -1716v-4z" />
    <glyph glyph-name="eight" unicode="8" horiz-adv-x="1160" 
d="M588 1716c84.667 0 159.331 -29.3311 223.998 -87.998c61.333 -60.667 92 -143.334 92 -248.001c-19.333 -101.333 -35.333 -152 -48 -152c0 -11.333 -54.667 -71.333 -164 -180c124.667 -32 219.334 -86.667 284.001 -164c82.667 -90 124 -210 124 -360
c0 -176.667 -70.667 -320.667 -212 -432c-38.667 -32.667 -98.667 -59.334 -180 -80.001c-15.333 -8 -59.333 -12 -132 -12c-80.667 0 -146 12 -196 36c-44 8 -105.333 49.333 -184 124c-50.667 69.333 -86.667 134.666 -108 195.999
c-13.333 40.667 -22.666 102 -27.999 184c0 58.667 17.333 134.667 52 228c16.667 47.333 63.334 106 140.001 176c44.667 36.667 98 64.667 160 84c40 11.333 60 19.333 60 24c-130.667 117.333 -196 200 -196 248c-8 0.666992 -13.333 39.334 -16 116.001v4
c3.33301 58.667 24.666 118.667 63.999 180c68 77.333 156 116 264 116zM351.997 1388c0 -76.667 40 -147.333 120 -212l108 -108c138.667 132 208 205.333 208 220c16 42.667 24 78.667 24 108v12c0 96.667 -50.667 166 -152 208l-84 12c-64.667 -8 -106 -20 -124 -36
c-66.667 -42 -100 -110 -100 -204zM151.997 544.003l-0.00195312 -44c0 -138 60 -252.667 180 -344c78.667 -45.333 161.334 -68 248.001 -68l4 -4c59.333 0 138 22.667 236 68c89.333 60 148 136 176 228c10.667 41.333 17.334 84 20.001 128c0 210 -98.667 354 -296 432
l-136 24c-89.333 0 -177.333 -25.333 -264 -76c-112 -97.333 -168 -212 -168 -344z" />
    <glyph glyph-name="nine" unicode="9" horiz-adv-x="1288" 
d="M636 1716c208 0 369.332 -77.332 483.999 -231.999c72 -100.667 108 -220.667 108 -360c0 -146.667 -61.333 -302.667 -184 -468l-432 -656h-108v4l392 596v4c-79.333 -37.333 -166 -56 -260 -56h-4c-101.333 0 -205.333 33.333 -312 100
c-115.333 81.333 -192.666 186.666 -231.999 315.999c-18.667 65.333 -28 113.333 -28 144c0 196 74.667 357.333 224 484c114 82.667 231.333 124 352 124zM147.999 1132c0 -172 69.3311 -307.999 207.998 -407.999c94 -56 190 -84 288 -84c112.667 0 214 32 304 96
c76.667 49.333 134 130.666 172 243.999c10.667 44.667 17.334 90 20.001 136c-5.33301 240 -106.666 397.333 -303.999 472c-25.333 13.333 -80 25.333 -164 36h-36c-110.667 0 -220 -38.667 -328 -116c-98.667 -103.333 -148 -199.333 -148 -288
c-8 -30.667 -12 -60 -12 -88z" />
    <glyph glyph-name="colon" unicode=":" horiz-adv-x="208" 
d="M60 498h88v-208h-88v208zM60 998h88v-208h-88v208z" />
    <glyph glyph-name="semicolon" unicode=";" horiz-adv-x="228" 
d="M168 -298c0 -35.333 -25.333 -98 -76 -188l-32 22l46 138h-26v212h88v-184zM79 207h89v-207h-89v207z" />
    <glyph glyph-name="semicolon" unicode="&#x37e;" horiz-adv-x="228" 
d="M168 -298c0 -35.333 -25.333 -98 -76 -188l-32 22l46 138h-26v212h88v-184zM79 207h89v-207h-89v207z" />
    <glyph glyph-name="question" unicode="?" horiz-adv-x="1196" 
d="M608 1720c76.667 0 166.002 -22.668 268.002 -68.001c78 -49.333 132.667 -100 164 -152c64 -80 96 -189.333 96 -328c0 -181.333 -74.667 -320 -224 -416c-88.667 -62.667 -147.334 -109.334 -176.001 -140.001c-34.667 -30.667 -52 -101.334 -52 -212.001v-84h-88v176
c0 64 28 126.667 84 188c40 37.333 100 82.666 180 135.999c81.333 66.667 134.666 133.334 159.999 200.001c10.667 35.333 20 91.333 28 168c0 82.667 -25.333 168 -76 256c-60.667 82 -136.667 135.333 -228 160c-43.333 16 -94 24 -152 24
c-74 -1.33301 -130.667 -9.66602 -170 -24.999s-85.333 -45.666 -138 -90.999c-90.667 -89.333 -136 -202.666 -136 -339.999v-64h-84v4l-4 44c0 160 48 293.333 144 400c108 109.333 242.667 164 404 164zM596.002 207.999h88v-208h-88v208z" />
    <glyph glyph-name="A" unicode="A" horiz-adv-x="1473" 
d="M785 1712c119.333 -9.33301 231.332 -45.333 335.999 -108c194.667 -129.333 292 -313.333 292 -552v-1052h-92v804h-1164v-804h-97l1 1012c0 210 65.333 380.667 196 512c80.667 84 202 142.667 364 176c10.667 5.33301 65.334 9.33301 164.001 12zM152.999 1008
v-116.003h1168v168c0 150.667 -60 289.334 -180 416.001c-126 90.667 -255.333 137.334 -388 140.001c-191.333 0 -343.333 -65.333 -456 -196c-96 -111.333 -144 -248.666 -144 -411.999z" />
    <glyph glyph-name="B" unicode="B" horiz-adv-x="1464" 
d="M1264 1256c0 -169.333 -67.999 -289.332 -203.999 -359.999c0 -4.66699 32 -15.334 96 -32.001c165.333 -91.333 248 -231.333 248 -420c0 -176 -77.333 -309.333 -232 -400c-70.667 -29.333 -129.334 -44 -176.001 -44h-936v1720h776c75.333 0 158 -28 248 -84
c120 -110 180 -236.667 180 -380zM152.001 1628l-0.000976562 -724.001h608c136 0 226.667 22.667 272 68c56.667 36 99.334 104 128.001 204l12 88c-19.333 122.667 -35.333 184 -48 184c-34.667 72.667 -100 127.334 -196 164.001c-46.667 10.667 -82.667 16 -108 16h-668
zM152 808l0.000976562 -716h792c106.667 0 182.667 21.333 228 64c54 29.333 98 96 132 200c4.66699 64 8.66699 96 12 96c-14.667 108.667 -36 178 -64 208c-41.333 66.667 -101.333 112 -180 136c-32.667 10.667 -63.334 16 -92.001 16z" />
    <glyph glyph-name="C" unicode="C" 
d="M944 1720h468.002v-96h-480c-258 0 -470 -109.333 -636 -328c-93.333 -138 -140 -286 -140 -444c0 -212.667 88 -404.667 264 -576c106 -85.333 200.667 -136 284 -152c49.333 -24 137.333 -36 264 -36h444v-88h-508c-236 0 -448 98.667 -636 296
c-68 86.667 -116 165.334 -144 236.001c-42.667 125.333 -64 234.666 -64 327.999c0 117.333 32 248 96 392c99.333 180.667 240.666 312.667 423.999 396c115.333 48 236.666 72 363.999 72z" />
    <glyph glyph-name="D" unicode="D" 
d="M1412 884v-48.001c0 -208.667 -82.667 -404.667 -248 -588c-182 -165.333 -379.333 -248 -592 -248h-512v1720h472c264 0 486.667 -97.333 668 -292c141.333 -169.333 212 -350.666 212 -543.999zM488 1628h-336v-1532h488c77.333 8 148 26.667 212 56
c30.667 8 90.667 44 180 108c192 169.333 288 369.333 288 600c0 206.667 -81.333 394.667 -244 564l-100 80c-123.333 73.333 -242 113.333 -356 120l-64 8z" />
    <glyph glyph-name="E" unicode="E" 
d="M944 1720h468.003v-96h-480c-252 0 -461.333 -105.333 -628 -316c-74 -103.333 -120.667 -219.333 -140 -348l-8 -60h864v-92h-864c13.333 -136 58.666 -265.333 135.999 -388c96.667 -132.667 212.667 -224.667 348 -276c78.667 -37.333 188 -56 328 -56h444v-88h-508
c-236 0 -448 98.667 -636 296c-68 86.667 -116 165.334 -144 236.001c-42.667 125.333 -64 234.666 -64 327.999c0 117.333 32 248 96 392c99.333 180.667 240.666 312.667 423.999 396c115.333 48 236.666 72 363.999 72z" />
    <glyph glyph-name="F" unicode="F" 
d="M944 1720h467.999v-96h-476c-187.333 0 -352.666 -57.333 -495.999 -172c-79.333 -72 -127.333 -125.333 -144 -160c-64.667 -84.667 -106 -184.667 -124 -300l-16 -92h864v-88h-864v-812h-96v724c0 183.333 13.333 310 40 380c0 30 33.333 103.333 100 220
c184 264 432 396 744 396z" />
    <glyph glyph-name="G" unicode="G" 
d="M944 1720l467.999 -0.000976562v-100h-468c-192.667 0 -362 -61.333 -508 -184c-57.333 -51.333 -105.333 -104.666 -144 -159.999c-76 -118 -118.667 -232.667 -128 -344l-4 -28v-28l-4 -16c0 -64.667 17.333 -154 52 -268c50 -114 118 -212.667 204 -296l76 -60
c81.333 -58 177.333 -100.667 288 -128l144 -20c142.667 0 277.334 42.667 404.001 128v432h-320v92h408v-740h-88v96h-4c-82.667 -45.333 -180 -76 -292 -92l-116 -4h-40c-118.667 0 -256 44 -412 132c-93.333 66 -156 122 -188 168
c-141.333 161.333 -212 357.333 -212 588c0 76 25.333 184 76 324c4 0.666992 17.333 26 40 76c107.333 182.667 272.666 314.667 495.999 396c94.667 24 185.334 36 272.001 36z" />
    <glyph glyph-name="H" unicode="H" 
d="M152 900h1172v820h88v-1720h-88v808h-1172v-808h-92v1720h92v-820z" />
    <glyph glyph-name="I" unicode="I" horiz-adv-x="208" 
d="M148 0h-88v1720h88v-1720z" />
    <glyph glyph-name="J" unicode="J" horiz-adv-x="796" 
d="M648 1720l87.999 -0.000976562v-996c0 -181.333 -32 -318.666 -96 -411.999c-64.667 -124 -180.667 -216 -348 -276c-67.333 -24 -144.666 -36 -231.999 -36v92h16c128 0 252 44 372 132c133.333 120 200 274.667 200 464v1032z" />
    <glyph glyph-name="K" unicode="K" horiz-adv-x="1468" 
d="M152 584l1136 1136h120v-4l-744 -748l652 -968h-112l-532 784l-80 112c-246.667 -242.667 -393.334 -390.667 -440.001 -444v-452h-92v1720h92v-1136z" />
    <glyph glyph-name="L" unicode="L" 
d="M156 92h1256v-92h-1352v1720h96v-1628z" />
    <glyph glyph-name="M" unicode="M" 
d="M736 184l8 -0.00195312l568 1536h100v-1720h-88v1472h-4l-552 -1472h-52c-4.66699 0.666992 -30 63.334 -76 188.001l-484 1284h-4v-1472h-92v1720h96c7.33301 -3.33301 42 -92.666 104 -267.999z" />
    <glyph glyph-name="N" unicode="N" horiz-adv-x="1352" 
d="M1204 172l0.000976562 1548h88v-1720h-88l-980 1448l-68 104h-4v-1552h-92v1720h96c29.333 -35.333 318.666 -464.666 867.999 -1288l176 -260h4z" />
    <glyph glyph-name="O" unicode="O" 
d="M724 1704c137.333 0 266.668 -34.667 388.001 -104c116 -78 194.667 -166 236 -264c24 -42.667 44 -112 60 -208l4 -76v-396c0 -186.667 -64 -344 -192 -472c-131.333 -122.667 -295.333 -184 -492 -184h-36c-118.667 0 -245.334 44 -380.001 132
c-168 136 -252 324 -252 564v308c0 145.333 33.333 277.333 100 396c83.333 128.667 200.666 218 351.999 268c80.667 23.333 151.334 35.333 212.001 36zM156.002 1008l-0.000976562 -303.999c0 -294 137.333 -487.333 412 -580c74.667 -13.333 126.667 -20 156 -20h32
c109.333 0 220 34.667 332 104c61.333 42.667 108 90.667 140 144c44 55.333 76 146 96 272v396c-2.66699 182 -80 336.667 -232 464c-114.667 72 -214.667 108 -300 108l-52 8c-64.667 0 -140.667 -13.333 -228 -40c-137.333 -52 -238.666 -145.333 -303.999 -280
c-34.667 -88.667 -52 -179.334 -52 -272.001z" />
    <glyph glyph-name="P" unicode="P" horiz-adv-x="1468" 
d="M1408 1332v-127.999c0 -22 -14.667 -76.667 -44 -164c-52.667 -96.667 -132.667 -167.334 -240 -212.001c-61.333 -13.333 -104 -20 -128 -20h-844v-808h-92v1720h896c114 0 212.667 -32 296 -96c72 -68 116 -133.333 132 -196zM840 1628h-688v-728h840
c104 0 193.333 49.333 268 148c42.667 64 64 137.333 64 220c0 148 -68 258.667 -204 332c-58 21.333 -110 31 -156 29z" />
    <glyph glyph-name="Q" unicode="Q" 
d="M724 1712c137.333 0 266.667 -34.665 388 -103.998c117.333 -80.667 196 -168.667 236 -264c24 -42.667 44 -112 60 -208l4 -76v-392c0 -168.667 -53.333 -316.667 -160 -444l160 -164l-64 -60l-160 160h-4c-124 -101.333 -276 -152 -456 -152h-4
c-207.333 0 -379.333 78.667 -516 236c-98.667 125.333 -148 282.666 -148 471.999v296c0 192.667 54.667 352.667 164 480c64.667 70 134 120.667 208 152c20.667 19.333 98 40.666 232 63.999zM156.001 1016l0.000976562 -335.999c2.66699 -84 21.334 -168 56.001 -252
c56.667 -122.667 152.667 -213.334 288 -272.001c91.333 -29.333 155.333 -44 192 -44h44c136 0 262.667 40 380 120l-336 340l64 60l336 -332c65.333 76 106.666 152 123.999 228l20 112v388c-2.66699 182 -80 336.667 -232 464c-114.667 72 -214.667 108 -300 108l-52 8
c-64.667 0 -140.667 -13.333 -228 -40c-232.667 -94.667 -351.334 -278.667 -356.001 -552z" />
    <glyph glyph-name="R" unicode="R" horiz-adv-x="1468" 
d="M1408 1320v-116c-15.333 -94 -43.333 -168.667 -84 -224c-90.667 -114.667 -210.667 -172 -360 -172l440 -768l-80 -40c-301.333 528 -457.333 797.333 -468 808h-704v-808h-92v1720h928c88 0 174.667 -30.667 260 -92c52 -44 90.667 -93.333 116 -148
c29.333 -68 44 -121.333 44 -160zM152 1632l-0.000976562 -732h772c148.667 0 251.334 38.667 308.001 116c61.333 71.333 92 154 92 248c0 116.667 -42.667 214 -128 292c-75.333 50.667 -146 76 -212 76h-832z" />
    <glyph glyph-name="S" unicode="S" horiz-adv-x="1468" 
d="M524 1716l884 0.000976562v-88h-812c-124.667 0 -208.667 -13.333 -252 -40c-122.667 -67.333 -184 -176.666 -184 -327.999c0 -144 66.667 -253.333 200 -328c52 -18.667 96 -28 132 -28h548c54 0 122 -28 204 -84c106.667 -96.667 160 -219.334 160 -368.001
c0 -178.667 -76 -313.334 -228 -404.001c-67.333 -32 -126 -48 -176 -48h-940v84h804c128 0 210.667 10.667 248 32c133.333 64.667 200 180.667 200 348c0 52.667 -20 118 -60 196c-40 66 -105.333 114 -196 144l-76 12h-536c-90.667 0 -180 45.333 -268 136
c-72 94.667 -108 192 -108 292v20c0 152.667 61.333 278 184 376c84 50.667 174.667 76 272 76z" />
    <glyph glyph-name="T" unicode="T" 
d="M1412 1628h-628v-1628h-92v1628h-632v92h1352v-92z" />
    <glyph glyph-name="U" unicode="U" 
d="M156 704c0 -294 137.333 -487.331 412 -579.998c74.667 -13.333 126.667 -20 156 -20h32c104.667 0 211.334 32 320.001 96c70 46 126 104.667 168 176c29.333 44 54.666 116 75.999 216v1120h92v-1056c0 -234 -97.333 -418 -292 -552
c-114.667 -69.333 -248 -104 -400 -104h-24c-139.333 0 -280.666 54.667 -423.999 164c-80 81.333 -132 158.666 -156 231.999c-6.66699 5.33301 -21.334 54.666 -44.001 147.999c-8 58 -12 108.667 -12 152v1016h96v-1008z" />
    <glyph glyph-name="V" unicode="V" 
d="M60 1720l96 -0.000976562c7.33301 -3.33301 42 -92.666 104 -267.999l476 -1268h8l568 1536h100v-4l-644 -1716h-52c-5.33301 2.66699 -33.333 72 -84 208z" />
    <glyph glyph-name="W" unicode="W" 
d="M60 1720h87.999c6.66699 0 17.334 -57.333 32.001 -172l220 -1300h4l288 1472h92l284 -1472h4l252 1472h88v-4l-292 -1716h-92c-6 0 -16.667 52 -32 156c-168 896.667 -252 1354 -252 1372h-8l-288 -1528h-92z" />
    <glyph glyph-name="X" unicode="X" horiz-adv-x="1484" 
d="M60 1720h108c20 -20 134.667 -176 344 -468l228 -312h4l464 628c69.333 96.667 108 147.334 116 152.001h96v-4l-624 -856l628 -860h-108l-528 720l-44 56c-53.333 -66.667 -232 -309.334 -536 -728.001l-40 -48h-100l624 856z" />
    <glyph glyph-name="Y" unicode="Y" horiz-adv-x="1476" 
d="M60 1720h104c9.33301 -6.66699 184 -248 524 -724l52 -68c8 5.33301 165.333 224 472 656l104 136h100v-4l-632 -884v-832h-92v836z" />
    <glyph glyph-name="Z" unicode="Z" horiz-adv-x="1480" 
d="M64 1720h1356v-4l-1184 -1624h1180v-92h-1356l1184 1628h-1180v92z" />
    <glyph glyph-name="backslash" unicode="\" horiz-adv-x="1480" 
d="M60 1720l104 0.000976562c20.667 -20.667 244.667 -327.334 672 -920.001l584 -800h-104z" />
    <glyph glyph-name="a" unicode="a" horiz-adv-x="1384" 
d="M672 1256c253.333 0 441.332 -94.667 563.999 -284v288h88v-1260h-88v280c-74 -118.667 -190 -204 -348 -256c-58 -16 -104.667 -24 -140 -24h-36c-157.333 -0 -288 37.333 -392 112c-105.333 72 -180 173.333 -224 304c-24 82.667 -36 154.667 -36 216
c0 96.667 26.667 202 80 316c84 142 206.667 236.667 368 284c80.667 16 135.334 24 164.001 24zM159.999 644l0.000976562 -7.99902l-4 -4l4 -4v-16c0 -199.333 89.333 -350 268 -452c89.333 -42.667 173.333 -64 252 -64h24c161.333 0 300 64 416 192
c74.667 106 112 220.667 112 344c0 168 -65.333 306.667 -196 416c-106.667 74.667 -217.334 112 -332.001 112h-24c-130 0 -254 -49.333 -372 -148c-98.667 -106.667 -148 -229.334 -148 -368.001z" />
    <glyph glyph-name="b" unicode="b" horiz-adv-x="1384" 
d="M152 972h4c64 115.333 173.333 199.333 328 252c65.333 21.333 137.333 32 216 32h28c123.333 0 252.666 -49.333 387.999 -148c80.667 -74 135.334 -150 164.001 -228c29.333 -65.333 44 -150.666 44 -255.999c0 -119.333 -22.667 -218 -68 -296
c-56 -124.667 -160 -219.334 -312 -284.001c-78.667 -29.333 -166.667 -44 -264 -44h-28c-140.667 -0 -278 57.333 -412 172c-34.667 37.333 -64 73.333 -88 108v-280h-92v1720h92v-748zM160 656v-20.001l-4 -4l4 -4v-16c0 -236.667 120 -400.667 360 -492
c58 -16 116.667 -24 176 -24c201.333 0 357.333 85.333 468 256c45.333 96 68 188 68 276c0 130.667 -42.667 250.667 -128 360c-83.333 76 -152.666 121.333 -207.999 136c-70.667 24 -137.334 36 -200.001 36c-138 0 -264.667 -46.667 -380 -140
c0 -5.33301 -12 -18.666 -36 -39.999c-80 -102 -120 -210 -120 -324z" />
    <glyph glyph-name="c" unicode="c" horiz-adv-x="1292" 
d="M800 1256l431.998 -0.000976562v-96h-460c-178 0 -300.667 -26.667 -368 -80c-95.333 -47.333 -168.666 -144.666 -219.999 -291.999c-10.667 -42 -18.667 -95.333 -24 -160c5.33301 -80 18.666 -150.667 39.999 -212c53.333 -127.333 138.666 -219.333 255.999 -276
c66.667 -32 173.334 -48 320.001 -48h456v-92h-568c-195.333 0 -356.666 80 -483.999 240c-41.333 59.333 -73.333 132.666 -96 219.999l-24 144c0 100.667 22.667 207.334 68 320.001l52 84c70.667 104 173.334 176 308.001 216c49.333 21.333 153.333 32 312 32z" />
    <glyph glyph-name="d" unicode="d" horiz-adv-x="1384" 
d="M1236 1720h87.999v-1720h-88v280c-66 -102 -158 -179.333 -276 -232c-89.333 -32 -162.666 -48 -219.999 -48h-24c-140.667 0 -258 28 -352 84c-121.333 64.667 -209.333 170 -264 316c-26.667 96 -40 173.333 -40 232c0 71.333 18.667 160.666 56 267.999
c72.667 152 186 256 340 312c78 28.667 147.333 43.334 208 44.001h20c231.333 0 411.333 -88 540 -264l8 -20h4v748zM159.999 656l0.00195312 -20l-4 -4l4 -4v-16c0 -222 108 -382 324 -480c68 -24 138.667 -36 212 -36c197.333 0 350.666 81.333 459.999 244
c50.667 94 76 190 76 288c0 126 -40 242 -120 348c-56.667 61.333 -112.667 104 -168 128c-84.667 37.333 -167.334 56 -248.001 56c-144 0 -270.667 -48 -380 -144c-70.667 -71.333 -114.667 -142 -132 -212c-16 -54 -24 -103.333 -24 -148z" />
    <glyph glyph-name="e" unicode="e" horiz-adv-x="1384" 
d="M680 1256c184 0 342.667 -61.334 476 -184.001l64 -80c69.333 -106.667 104 -224 104 -352v-28h-1164v-20c0 -107.333 38.667 -212.666 116 -315.999c86.667 -83.333 164 -134 232 -152c68 -21.333 125.333 -32 172 -32c234 0 402 100 504 300c16 35.333 28 78 36 128h96
v-8c0 -61.333 -32 -148 -96 -260c-74 -96.667 -170 -168.667 -288 -216c-86 -24 -154 -36 -204 -36h-64c-120 0 -240 38.667 -360 116c-98.667 89.333 -157.334 158.666 -176.001 207.999c-45.333 100 -68 201.333 -68 304c0 102 26.667 210 80 324
c70 118.667 175.333 205.334 316 260.001c72.667 21.333 147.334 36 224.001 44zM168 703.999h1056v4c-15.333 99.333 -43.333 175.333 -84 228c-59.333 84.667 -136.666 144.667 -231.999 180c-78.667 28 -149.334 42.667 -212.001 44c-52.667 0 -128.667 -14.667 -228 -44
c-64.667 -29.333 -128.667 -76 -192 -140c-72 -97.333 -108 -188 -108 -272z" />
    <glyph glyph-name="f" unicode="f" horiz-adv-x="808" 
d="M668 1716h80v-92h-4c-281.333 0 -465.333 -121.333 -552 -364h512v-92h-540l-12 -148v-1020h-92v1020c0 219.333 66.667 394 200 524c82.667 76.667 192 130 328 160z" />
    <glyph glyph-name="g" unicode="g" horiz-adv-x="1384" 
d="M708 1256c166.667 0 321.332 -65.334 463.999 -196.001l64 -88v284h88v-1128c0 -191.333 -77.333 -347.333 -232 -468c-92.667 -60 -176.667 -96 -252 -108c-13.333 -8 -66.666 -12 -159.999 -12h-12c-146 0 -287.333 57.333 -424 172
c-87.333 96.667 -138 191.334 -152 284.001h100c10 -62.667 51.333 -134.667 124 -216l80 -64c93.333 -53.333 186.666 -80 279.999 -80l48 -8c108 12 190.667 34.667 248 68c104 50.667 180 136 228 256c24 65.333 36 137.333 36 216v112h-4
c-54 -107.333 -162 -191.333 -324 -252c-70.667 -21.333 -146.667 -32 -228 -32h-16c-105.333 0 -222.666 38.667 -351.999 116c-86 70 -144.667 136.667 -176 200c-50.667 110 -76 215.333 -76 316c0 76.667 21.333 172.667 64 288c22 43.333 62 98 120 164
c131.333 117.333 286 176 464 176zM159.998 639.999l-0.00195312 -12.002l-4 -4l4 -4v-16c0 -116 37.333 -224 112 -324c62 -66 108.667 -103.333 140 -112c84.667 -48 159.334 -72 224.001 -72l36 -4h44c100 0 208 37.333 324 112c92 86.667 144 162.667 156 228
c24 62 36 126 36 192c0 158.667 -57.333 293.334 -172 404.001c-64.667 48.667 -112.667 76.667 -144 84c-89.333 32 -162.666 48 -219.999 48c-125.333 -13.333 -213.333 -34.666 -264 -63.999c-181.333 -104 -272 -256 -272 -456z" />
    <glyph glyph-name="h" unicode="h" horiz-adv-x="1384" 
d="M152 976h4.00098c57.333 102 149.333 179.333 276 232c74 34.667 166 52 276 52h16c113.333 0 236 -42.667 368 -128c94.667 -80 156 -161.333 184 -244c32 -54.667 48 -149.334 48 -284.001v-604h-92v620c0 248 -114.667 418.667 -344 512
c-48.667 16.667 -114 27.334 -196 32.001c-136.667 0 -263.334 -46.667 -380.001 -140l-40 -44c-80 -94 -120 -228.667 -120 -404v-576h-92v1724h92v-748z" />
    <glyph glyph-name="i" unicode="i" horiz-adv-x="210" 
d="M150 0h-90v1260h90v-1260zM149 1513h-89v207h89v-207z" />
    <glyph glyph-name="j" unicode="j" horiz-adv-x="797" 
d="M648 1259l88 -0.00195312v-1246c0 -181.333 -32 -318.666 -96 -411.999c-64.667 -124 -180.667 -216 -348 -276c-66.667 -24 -144 -36 -232 -36v92h16c128.667 0 252.667 44 372 132c133.333 120.667 200 275.334 200 464.001v1282zM737 1513h-89v207h89v-207z" />
    <glyph glyph-name="k" unicode="k" horiz-adv-x="1256" 
d="M152 556l3.99902 0.000976562c230.667 0 426.667 92 588 276c90 110 146 226 168 348l12 80h88c-12.667 -121.333 -38 -221.333 -76 -300c-29.333 -72.667 -97.333 -166 -204 -280c-5.33301 0 -18.666 -10.667 -39.999 -32c-25.333 -21.333 -41.333 -32 -48 -32v-4
c96 -8 197.333 -44 304 -108c165.333 -131.333 248 -295.333 248 -492v-8h-96v44c0 53.333 -25.333 130.666 -76 231.999c-108.667 162.667 -264.667 244 -468 244c-34.667 0 -116 -14.667 -244 -44l-156 -20h-4v-460h-92v1720h92v-1164z" />
    <glyph glyph-name="l" unicode="l" horiz-adv-x="212" 
d="M152 0h-92v1720h92v-1720z" />
    <glyph glyph-name="m" unicode="m" 
d="M524 1260c59.333 0 131.331 -17.334 215.998 -52.001c86 34.667 154 52 204 52h20c120 0 229.333 -44 328 -132c80 -88 120 -186.667 120 -296v-832h-88v824c0 78.667 -30.667 156 -92 232c-76 77.333 -172 116 -288 116c-33.333 0 -84 -12 -152 -36v-1136h-92v1128
c-66.667 29.333 -132 44 -196 44c-86 -10 -150 -28.667 -192 -56c-109.333 -81.333 -162.666 -182.666 -159.999 -303.999v-812h-92v800c0 161.333 64 288 192 380c76.667 53.333 167.334 80 272.001 80z" />
    <glyph glyph-name="n" unicode="n" horiz-adv-x="1384" 
d="M152 976c24.667 39.333 60.668 81.9971 108.001 127.997c80.667 60.667 128.667 91.334 144 92.001c85.333 42.667 193.333 64 324 64c127.333 -10 244.666 -50 351.999 -120c110.667 -81.333 186.667 -194.666 228 -339.999c10.667 -40 16 -105.333 16 -196v-604h-92
v616c0 253.333 -116 425.333 -348 516c-37.333 14 -101.333 24.667 -192 32c-80 0 -169.333 -21.333 -268 -64c-59.333 -36 -98 -64 -116 -84c-64 -60 -110.667 -142.667 -140 -248c-10.667 -61.333 -16 -134.666 -16 -219.999v-548h-92v1264h92v-288z" />
    <glyph glyph-name="o" unicode="o" horiz-adv-x="1384" 
d="M676 1256c122 0 242 -30.6641 360 -91.9971c120.667 -72 204.667 -176 252 -312c24 -68 36 -136 36 -204v-48c0 -122.667 -37.333 -241.334 -112 -356.001c-75.333 -88 -135.333 -140 -180 -156c-86 -50.667 -155.333 -76 -208 -76c0 -8 -53.333 -12 -160 -12h-8
c-111.333 0 -226 37.333 -344 112c-168 125.333 -252 298.666 -252 519.999c0 119.333 34.667 238 104 356c121.333 169.333 292 258.666 512 267.999zM156 624.003c0 -133.333 42.668 -252 128.001 -356c54 -60 126 -108 216 -144c78 -21.333 139.333 -32 184 -32h20
c111.333 0 224.666 38.667 339.999 116c68.667 64.667 112.667 120.667 132 168c37.333 86.667 56 172 56 256c0 76.667 -20 160.667 -60 252c-62.667 113.333 -153.334 192 -272.001 236c-58 21.333 -126 34.666 -204 39.999c-90 0 -186 -25.333 -288 -76
c-99.333 -61.333 -170 -142.666 -212 -243.999c-19.333 -47.333 -32.666 -119.333 -39.999 -216z" />
    <glyph glyph-name="p" unicode="p" horiz-adv-x="1384" 
d="M152 972c85.333 114 158.666 182 219.999 204c84.667 53.333 203.334 80 356.001 80c94.667 -4.66699 189.334 -30 284.001 -76c132 -72 226.667 -185.333 284 -340c18.667 -50.667 28 -122.667 28 -216c0 -128 -26.667 -234.667 -80 -320
c-64 -124 -178.667 -216 -344 -276c-78.667 -21.333 -153.334 -32 -224.001 -32c-145.333 0 -281.333 50.667 -408 152c-60.667 57.333 -98 101.333 -112 132h-4v-740h-92v1720h92v-288zM160 644v-12.001l-4 -4l4 -4v-16c0 -170 70.667 -308.667 212 -416
c102.667 -64 202.667 -96 300 -96h44c90 0 187.333 29.333 292 88c149.333 112.667 224 260.667 224 444c0 121.333 -38.667 236 -116 344c-116.667 125.333 -254 188 -412 188h-24c-116 0 -233.333 -42.667 -352 -128c-112 -109.333 -168 -238.666 -168 -387.999z" />
    <glyph glyph-name="q" unicode="q" horiz-adv-x="1384" 
d="M672 1256c253.333 0 441.332 -94.667 563.999 -284v288h88v-1720h-88v740h-4c-64 -116 -181.333 -202.667 -352 -260c-67.333 -16 -124.666 -24 -171.999 -24c-208 0 -377.333 74.667 -508 224c-80 107.333 -124 214 -132 320l-8 92c0 92 25.333 194.667 76 308
c24 46.667 70.667 104 140 172c108 83.333 224 130 348 140zM159.999 644v-11.999l-4 -4l4 -4v-16c0 -180.667 77.333 -323.334 232 -428.001c96 -56 189.333 -84 280 -84h44c90 0 187.333 29.333 292 88c96.667 64 164.667 162.667 204 296
c13.333 63.333 20 112.666 20 147.999c0 166.667 -64 306.667 -192 420c-112.667 74.667 -224.667 112 -336 112h-24c-116 0 -233.333 -42.667 -352 -128c-112 -111.333 -168 -240.666 -168 -387.999z" />
    <glyph glyph-name="r" unicode="r" horiz-adv-x="564" 
d="M148 1084c97.333 114.667 213.334 172 348.001 172h8v-88h-4c-128.667 0 -227.334 -52 -296.001 -156c-34.667 -47.333 -52 -126 -52 -236v-776h-92v1260h88v-176z" />
    <glyph glyph-name="s" unicode="s" horiz-adv-x="1288" 
d="M456 1260l771.998 0.000976562v-92h-792c-138 0 -226 -56 -264 -168c-10.667 -34.667 -16 -65.334 -16 -92.001c0 -72 30.667 -136 92 -192c48.667 -34.667 91.334 -53.334 128.001 -56.001h556c70 -8 131.333 -34.667 184 -80c54.667 -52 88 -105.333 100 -160l8 -52
v-84c-8 -65.333 -38.667 -129.333 -92 -192c-43.333 -41.333 -99.333 -70.666 -168 -87.999l-88 -4h-816v88h796c146.667 0 237.334 60 272.001 180l8 64c0 102 -50.667 176.667 -152 224l-72 16h-508c-70.667 -2.66699 -138.667 17.333 -204 60
c-90.667 76.667 -136 170 -136 280c0 102.667 41.333 194.667 124 276c62 48 151.333 72 268 72z" />
    <glyph glyph-name="t" unicode="t" horiz-adv-x="796" 
d="M152 1264l548 0.000976562v-92h-548v-516c1.33301 -72.667 20 -154 56 -244c20.667 -54.667 78 -125.334 172 -212.001c116 -72 230.667 -108 344 -108h12v-92h-4c-197.333 0 -365.333 70.667 -504 212c-112 130.667 -168 292 -168 484v1024h92v-456z" />
    <glyph glyph-name="u" unicode="u" horiz-adv-x="1384" 
d="M156 1260l0.00195312 -536c0 -181.333 24 -305.333 72 -372c51.333 -97.333 136.666 -169.333 255.999 -216c75.333 -26.667 140.666 -40 195.999 -40h32c107.333 0 218 37.333 332 112c128 109.333 192 254.666 192 435.999v620h88v-1264h-88v280
c-74.667 -118.667 -188 -202.667 -340 -252c-54.667 -18.667 -106.667 -28 -156 -28h-24c-216.667 0 -382 68 -496 204c-65.333 58.667 -113.333 154.667 -144 288c-10.667 66.667 -16 117.334 -16 152.001v616h96z" />
    <glyph glyph-name="v" unicode="v" horiz-adv-x="1124" 
d="M60 1260h96.001c4 0 33.333 -73.333 88 -220l316 -856h8l396 1076h100v-4l-468 -1256h-56c-10.667 13.333 -53.334 124 -128.001 332z" />
    <glyph glyph-name="w" unicode="w" 
d="M156 424c8.66699 -90 31.3311 -155.333 67.998 -196c40.667 -58.667 103.334 -101.334 188.001 -128.001l100 -16l136 24c-73.333 75.333 -112 134 -116 176c-18.667 39.333 -28 118 -28 236v100h92v-88c0 -156 21.333 -256 64 -300c43.333 -48 70 -73.333 80 -76
c98.667 58 148 178 148 360v104h84v-172c0 -143.333 -48 -256.666 -144 -339.999c56 -13.333 98.667 -20 128 -20h4l4 -4l4 4h16c81.333 0 160 32 236 96c66.667 74 101.334 144.667 104.001 212v864h88v-836c0 -140 -60 -254.667 -180 -344
c-80.667 -53.333 -160.667 -80 -240 -80h-84c-27.333 0 -83.333 16 -168 48h-8c-76 -32 -133.333 -48 -172 -48h-76c-124 -0 -236 57.333 -336 172c-58.667 85.333 -88 180 -88 284v804h96v-836z" />
    <glyph glyph-name="x" unicode="x" horiz-adv-x="1288" 
d="M60 1260l116 0.000976562c16.667 -14 91.334 -103.333 224.001 -268l244 -288c44.667 47.333 196.667 228.666 456 543.999l16 12h112v-4l-524 -628l524 -628h-112c-84 94.667 -236 276 -456 544l-16 12c-16.667 -14 -91.334 -103.333 -224.001 -268l-240 -288h-116
l524 628z" />
    <glyph glyph-name="y" unicode="y" horiz-adv-x="1124" 
d="M60 1260h96c4 0 33.333 -73.333 88 -220l316 -856h8l396 1076h100v-4l-640 -1716h-96v4l188 516z" />
    <glyph glyph-name="z" unicode="z" horiz-adv-x="1288" 
d="M60 1168v91.998h1168v-80c0 -15.333 -29.333 -48.666 -88 -99.999c0 -5.33301 -157.333 -170.666 -472 -495.999l-472 -496h1032v-88h-1168v76l1036 1092h-1036z" />
    <glyph glyph-name="Euro" unicode="&#x20ac;" horiz-adv-x="1592" 
d="M1156 1720l376 -0.000976562v-96h-512c-158 0 -306 -53.333 -444 -160c-74 -63.333 -134 -128.666 -180 -195.999c-48.667 -83.333 -82 -163.333 -100 -240h1120v-92h-1136l-4 -80l4 -80h1136v-92h-1120c39.333 -146 100.666 -260.667 183.999 -344
c68 -74 130.667 -124.667 188 -152c124.667 -66.667 243.334 -100 356.001 -100h508v-88h-500c-231.333 0 -439.333 90.667 -624 272l-52 68c-87.333 123.333 -139.333 238 -156 344h-140v92h124l-4 84l4 76h-124v92h140c2.66699 48 34.667 134.667 96 260
c107.333 182 267.333 311.333 480 388c71.333 29.333 198 44 380 44z" />
    <glyph glyph-name=".null" horiz-adv-x="120" 
 />
    <glyph glyph-name="nonmarkingreturn" horiz-adv-x="120" 
 />
    </font>
</defs>
</svg>
